<svg width="69" height="20" viewBox="0 0 69 20" fill="none" xmlns="http://www.w3.org/2000/svg">
<path d="M60.8728 18.8092C60.5262 18.8092 60.1795 18.6764 59.9154 18.4106C59.3863 17.8791 59.3863 17.0181 59.9154 16.4867L65.7317 10.6456L59.9154 4.80355C59.3863 4.27206 59.3863 3.41106 59.9154 2.87957C60.4444 2.34809 61.3015 2.34809 61.8306 2.87957L68.6027 9.68258C69.1318 10.2141 69.1318 11.0751 68.6027 11.6066L61.8306 18.4096C61.5661 18.6774 61.2194 18.8092 60.8728 18.8092Z" fill="#2C2D2E"/>
<path d="M8.12675 18.8092C8.47331 18.8092 8.82004 18.6764 9.08415 18.4106C9.61322 17.8791 9.61322 17.0181 9.08415 16.4867L3.26777 10.6456L9.08415 4.80355C9.61322 4.27206 9.61322 3.41106 9.08415 2.87957C8.55508 2.34809 7.69799 2.34809 7.16892 2.87957L0.396817 9.68258C-0.132254 10.2141 -0.132254 11.0751 0.396817 11.6066L7.16892 18.4096C7.43345 18.6774 7.7801 18.8092 8.12675 18.8092Z" fill="#2C2D2E"/>
<path d="M35.2903 18.8091C39.9447 18.8091 43.7178 15.036 43.7178 10.3816C43.7178 5.72722 39.9447 1.9541 35.2903 1.9541C30.6359 1.9541 26.8628 5.72722 26.8628 10.3816C26.8628 15.036 30.6359 18.8091 35.2903 18.8091Z" stroke="#2C2D2E" stroke-width="2.10688"/>
</svg>
