<svg width="50" height="51" viewBox="0 0 50 51" fill="none" xmlns="http://www.w3.org/2000/svg">
<path d="M50.0001 23.5336V26.4669C49.9633 26.6056 49.9353 26.7465 49.9163 26.8888C49.6739 30.3776 48.77 33.6934 47.059 36.7355C42.454 44.9236 35.4318 49.3806 26.0502 49.9583C21.6183 50.2527 17.1965 49.2513 13.3239 47.0761C5.09647 42.4934 0.632959 35.4542 0.0473441 26.0529C-0.233017 21.5449 0.761349 17.2438 2.94004 13.2795C6.81707 6.22852 12.7195 1.93402 20.6474 0.395959C21.6011 0.212546 22.5745 0.13394 23.5387 0.00292969H26.4655C26.6049 0.0404291 26.7468 0.0684419 26.89 0.086776C29.4407 0.26495 31.9181 0.788989 34.2619 1.79777C42.695 5.41495 47.8476 11.7178 49.6137 20.7444C49.7931 21.6641 49.8731 22.6035 50.0001 23.5336ZM17.8673 24.9485C17.8673 27.2897 17.8608 29.6308 17.8673 31.9733C17.8673 33.5454 19.1774 34.3721 20.5805 33.6764C25.2331 31.3619 29.8805 29.0391 34.5226 26.708C35.2235 26.3569 35.7017 25.8276 35.7017 25.0049C35.7017 24.1821 35.2183 23.6397 34.4886 23.2768C29.8857 20.9842 25.2829 18.6849 20.6801 16.3792C19.1538 15.6193 17.8712 16.4145 17.8673 18.1164C17.8647 20.3951 17.8647 22.6725 17.8673 24.9485V24.9485Z" fill="white"/>
</svg>
