<svg width="85" height="85" viewBox="0 0 85 85" fill="none" xmlns="http://www.w3.org/2000/svg">
<path fill-rule="evenodd" clip-rule="evenodd" d="M18.4776 76.4993V84H25.0224V76.4993C26.3546 76.1702 27.63 75.642 28.8047 74.9326L33.2694 79.3973L37.8973 74.7694L33.4326 70.3047C34.142 69.13 34.6702 67.8546 34.9993 66.5224H42.5V59.9776H34.9993C34.6702 58.6454 34.142 57.37 33.4326 56.1953L37.8973 51.7306L33.2694 47.1027L28.8047 51.5674C27.63 50.858 26.3546 50.3298 25.0224 50.0007V42.5H18.4776V50.0007C17.1454 50.3298 15.87 50.858 14.6953 51.5674L10.2306 47.1027L5.60273 51.7306L10.0674 56.1953C9.35805 57.37 8.82978 58.6454 8.50069 59.9776H1V66.5224H8.50069C8.82978 67.8546 9.35805 69.13 10.0674 70.3047L5.60273 74.7694L10.2306 79.3973L14.6953 74.9326C15.87 75.642 17.1454 76.1702 18.4776 76.4993ZM21.75 70.3526C19.8663 70.3526 18.0597 69.6043 16.7277 68.2723C15.3957 66.9403 14.6474 65.1337 14.6474 63.25C14.6474 61.3663 15.3957 59.5597 16.7277 58.2277C18.0597 56.8957 19.8663 56.1474 21.75 56.1474C23.6337 56.1474 25.4403 56.8957 26.7723 58.2277C28.1043 59.5597 28.8526 61.3663 28.8526 63.25C28.8526 65.1337 28.1043 66.9403 26.7723 68.2723C25.4403 69.6043 23.6337 70.3526 21.75 70.3526ZM59.9776 66.1243C58.6454 65.7952 57.37 65.267 56.1953 64.5576L51.7306 69.0223L47.1027 64.3944L51.5674 59.9297C50.858 58.755 50.3298 57.4796 50.0007 56.1474H42.5V49.6026H50.0007C50.3298 48.2704 50.858 46.995 51.5674 45.8203L47.1027 41.3556L51.7306 36.7277L56.1953 41.1924C57.37 40.483 58.6454 39.9548 59.9776 39.6257V32.125H66.5224V39.6257C67.8546 39.9548 69.13 40.483 70.3047 41.1924L74.7694 36.7277L79.3973 41.3556L74.9326 45.8203C75.642 46.995 76.1702 48.2704 76.4993 49.6026H84V56.1474H76.4993C76.1702 57.4796 75.642 58.755 74.9326 59.9297L79.3973 64.3944L74.7694 69.0223L70.3047 64.5576C69.13 65.267 67.8546 65.7952 66.5224 66.1243V73.625H59.9776V66.1243ZM63.25 59.9776C61.3663 59.9776 59.5597 59.2293 58.2277 57.8973C56.8957 56.5653 56.1474 54.7587 56.1474 52.875C56.1474 50.9913 56.8957 49.1847 58.2277 47.8527C59.5597 46.5207 61.3663 45.7724 63.25 45.7724C65.1337 45.7724 66.9403 46.5207 68.2723 47.8527C69.6043 49.1847 70.3526 50.9913 70.3526 52.875C70.3526 54.7587 69.6043 56.5653 68.2723 57.8973C66.9403 59.2293 65.1337 59.9776 63.25 59.9776ZM28.8526 34.9993V42.5H35.3974V34.9993C36.7296 34.6702 38.005 34.142 39.1797 33.4326L43.6444 37.8973L48.2723 33.2694L43.8076 28.8047C44.517 27.63 45.0452 26.3546 45.3743 25.0224H52.875V18.4776H45.3743C45.0452 17.1454 44.517 15.87 43.8076 14.6953L48.2723 10.2306L43.6444 5.60273L39.1797 10.0674C38.005 9.35805 36.7296 8.82978 35.3974 8.50069V0.999999H28.8526V8.50069C27.5204 8.82978 26.245 9.35805 25.0703 10.0674L20.6056 5.60273L15.9777 10.2306L20.4424 14.6953C19.733 15.87 19.2048 17.1454 18.8757 18.4776H11.375V25.0224H18.8757C19.2048 26.3546 19.733 27.63 20.4424 28.8047L15.9777 33.2694L20.6056 37.8973L25.0703 33.4326C26.245 34.142 27.5204 34.6702 28.8526 34.9993ZM32.125 28.8526C30.2413 28.8526 28.4347 28.1043 27.1027 26.7723C25.7707 25.4403 25.0224 23.6337 25.0224 21.75C25.0224 19.8663 25.7707 18.0597 27.1027 16.7277C28.4347 15.3957 30.2413 14.6474 32.125 14.6474C34.0087 14.6474 35.8153 15.3957 37.1473 16.7277C38.4793 18.0597 39.2276 19.8663 39.2276 21.75C39.2276 23.6337 38.4793 25.4403 37.1473 26.7723C35.8153 28.1043 34.0087 28.8526 32.125 28.8526Z" stroke="#0F6FA9"/>
</svg>
