<svg width="174" height="30" viewBox="0 0 174 30" fill="none" xmlns="http://www.w3.org/2000/svg">
<g clip-path="url(#clip0_244_2988)">
<path d="M10.1344 19.9966H0V29.9959H10.1344V19.9966Z" fill="#31BEDD"/>
<path d="M20.2666 0V9.99929V19.9965H12.0078V29.9958H20.2666H30.4011V19.9965V9.99929V0H20.2666Z" fill="#319CDD"/>
<path d="M10.1323 19.9966L0 29.9959H10.1323V19.9966Z" fill="#319CDD"/>
<path d="M20.2667 0H10.1344H0V9.99929V18.148H10.1344V9.99929H20.2667L30.4012 0H20.2667Z" fill="#31BEDD"/>
<path d="M39.9918 17.6243V29.6587C39.9983 29.7035 39.9939 29.7493 39.9789 29.7922C39.9656 29.8363 39.9412 29.8764 39.908 29.9088C39.8747 29.9412 39.8344 29.9658 39.7902 29.9808C39.7459 29.9959 39.6988 30.001 39.6524 29.9957H38.3912C38.3448 30.0014 38.2977 29.9964 38.2537 29.9809C38.2097 29.9664 38.1699 29.9417 38.1377 29.9088C38.1038 29.8766 38.0787 29.8365 38.0646 29.7922C38.0497 29.7493 38.0452 29.7035 38.0517 29.6587V17.6243C38.0459 17.5792 38.0511 17.5335 38.0668 17.4908C38.0806 17.4475 38.105 17.4082 38.1377 17.3763C38.1702 17.3435 38.2101 17.3188 38.2542 17.3041C38.2982 17.2893 38.3451 17.285 38.3912 17.2915H39.6438C39.69 17.285 39.7371 17.2894 39.7813 17.3042C39.8253 17.3187 39.8651 17.3434 39.8973 17.3763C39.9299 17.4087 39.9548 17.4478 39.9703 17.4908C39.9882 17.5329 39.9956 17.5787 39.9918 17.6243Z" fill="#3A3A3A"/>
<path d="M44.9981 29.9959H43.7584C43.7119 30.0011 43.6648 29.996 43.6206 29.981C43.5763 29.966 43.5361 29.9413 43.5027 29.909C43.4703 29.876 43.446 29.8361 43.4318 29.7924C43.4168 29.7495 43.4124 29.7037 43.4189 29.6588V17.6245C43.4124 17.5796 43.4168 17.5338 43.4318 17.4909C43.4473 17.4479 43.4722 17.4088 43.5049 17.3765C43.5371 17.3436 43.5769 17.3188 43.6209 17.3044C43.6651 17.2896 43.7122 17.2852 43.7584 17.2917H44.882C44.9684 17.2818 45.0559 17.2973 45.1334 17.3362C45.211 17.3747 45.2759 17.4342 45.3203 17.5079L50.1716 26.1017H50.2533V17.6224C50.2468 17.5775 50.2512 17.5317 50.2662 17.4888C50.2817 17.4458 50.3066 17.4067 50.3392 17.3743C50.3714 17.3414 50.4112 17.3167 50.4552 17.3023C50.4994 17.2875 50.5465 17.2831 50.5927 17.2895H51.8324C51.8785 17.2834 51.9254 17.287 51.9699 17.3001C52.0144 17.3148 52.0549 17.3395 52.088 17.3723C52.1212 17.405 52.1463 17.4449 52.1611 17.4888C52.1757 17.5318 52.1809 17.5773 52.1762 17.6224V29.6567C52.1826 29.7023 52.1782 29.7487 52.1633 29.7924C52.1479 29.836 52.1229 29.8758 52.0902 29.909C52.0563 29.9408 52.0161 29.9653 51.9721 29.981C51.9271 29.9958 51.8793 30.0002 51.8324 29.9938H50.7582C50.651 29.9909 50.5465 29.9602 50.4552 29.9047C50.3639 29.849 50.2897 29.7699 50.2404 29.6758L45.4342 21.1795H45.3547V29.6588C45.3612 29.7037 45.3568 29.7495 45.3418 29.7924C45.3285 29.8365 45.3041 29.8766 45.2709 29.909C45.2376 29.9413 45.1973 29.966 45.1531 29.981C45.1088 29.996 45.0617 30.0011 45.0152 29.9959H44.9981Z" fill="#3A3A3A"/>
<path d="M55.4931 29.6589V17.6245C55.4867 17.5796 55.4911 17.5338 55.506 17.491C55.5215 17.448 55.5465 17.4089 55.5791 17.3765C55.6113 17.3436 55.6511 17.3189 55.6951 17.3044C55.7393 17.2896 55.7864 17.2852 55.8326 17.2917H60.757C61.1741 17.2669 61.5921 17.3253 61.9859 17.4634C62.3835 17.6022 62.7489 17.8185 63.0601 18.0994C63.6116 18.6307 63.888 19.3847 63.8895 20.3612V26.9327C63.9517 27.5542 63.7972 28.1779 63.4515 28.701C63.1057 29.224 62.5895 29.615 61.988 29.8094C61.5937 29.9485 61.1752 30.009 60.757 29.9874H55.8326C55.7869 29.9922 55.7407 29.9871 55.6972 29.9726C55.6538 29.9583 55.6142 29.9344 55.5815 29.9029C55.5487 29.8713 55.5237 29.8328 55.5082 29.7903C55.4936 29.7481 55.4884 29.7032 55.4931 29.6589ZM57.6545 28.3149H60.4841C61.4452 28.3149 61.9257 27.828 61.9257 26.8543V20.4333C61.9257 19.4568 61.4452 18.9685 60.4841 18.9685H57.6545C57.5084 18.9685 57.4397 19.0342 57.4397 19.1656V28.105C57.4357 28.1337 57.4394 28.163 57.4504 28.1898C57.4602 28.2172 57.4764 28.2419 57.4977 28.2619C57.5187 28.2826 57.5445 28.2979 57.5729 28.3064C57.5992 28.3147 57.627 28.3176 57.6545 28.3149Z" fill="#3A3A3A"/>
<path d="M69.0458 17.6243V29.6587C69.0519 29.7034 69.0483 29.749 69.035 29.7922C69.0201 29.8361 68.9951 29.876 68.962 29.9088C68.9298 29.9417 68.89 29.9664 68.846 29.9809C68.8019 29.9962 68.7549 30.0013 68.7085 29.9957H67.4452C67.399 30.0021 67.3519 29.9977 67.3077 29.983C67.2632 29.9683 67.2227 29.9436 67.1895 29.9109C67.1568 29.8778 67.1318 29.838 67.1164 29.7943C67.1015 29.7507 67.0971 29.7043 67.1036 29.6587V17.6243C67.0967 17.5793 67.1018 17.5332 67.1186 17.4908C67.1319 17.4461 67.1571 17.4058 67.1916 17.3742C67.2244 17.342 67.2641 17.3174 67.3077 17.3021C67.3522 17.2891 67.3991 17.2855 67.4452 17.2915H68.7106C68.7563 17.2847 68.8029 17.2898 68.846 17.3063C68.8895 17.3208 68.9291 17.3447 68.962 17.3763C68.9936 17.4091 69.0177 17.4481 69.0329 17.4908C69.0478 17.5337 69.0522 17.5794 69.0458 17.6243Z" fill="#3A3A3A"/>
<path d="M73.1735 29.9958H71.7383C71.5514 29.9958 71.4848 29.8813 71.5364 29.6587L75.0191 17.6244C75.0453 17.5216 75.1077 17.4314 75.1953 17.37C75.2838 17.308 75.3924 17.2801 75.5004 17.2916H77.4899C77.5981 17.2769 77.708 17.3034 77.7971 17.3658C77.8854 17.4279 77.9474 17.52 77.9711 17.6244L81.4538 29.6587C81.5054 29.8707 81.4323 29.9958 81.239 29.9958H79.821C79.7309 30.0045 79.6409 29.9787 79.5696 29.9237C79.5111 29.8461 79.4741 29.7547 79.4622 29.6587L78.7016 27.0895H74.2843L73.5237 29.6587C73.4786 29.8961 73.3605 29.9958 73.1735 29.9958ZM76.4564 19.1846L74.6947 25.5081H78.3278L76.5445 19.1846H76.4564Z" fill="#3A3A3A"/>
<path d="M90.6125 29.9957H89.3513C89.3044 30.0021 89.2566 29.9978 89.2117 29.983C89.1677 29.9673 89.1275 29.9427 89.0935 29.9109C89.0607 29.8782 89.0364 29.8382 89.0226 29.7943C89.0077 29.7507 89.0033 29.7043 89.0097 29.6587V17.6243C89.0033 17.5794 89.0077 17.5336 89.0226 17.4908C89.0376 17.4469 89.0626 17.407 89.0957 17.3742C89.1292 17.3419 89.1696 17.3173 89.2138 17.3021C89.2584 17.2889 89.3053 17.2853 89.3513 17.2915H94.1146C95.09 17.2915 95.8513 17.5579 96.3984 18.0907C96.942 18.6249 97.2213 19.3774 97.2213 20.3525V22.4024C97.26 22.8144 97.2063 23.2298 97.0639 23.619C96.9214 24.0081 96.6937 24.3615 96.3971 24.654C96.1005 24.9465 95.7421 25.1708 95.3476 25.3111C94.9531 25.4514 94.5321 25.5041 94.1146 25.4656H91.1948C91.0336 25.4656 90.952 25.5313 90.952 25.6628V29.6544C90.9585 29.6993 90.954 29.7451 90.9391 29.788C90.9249 29.8317 90.9006 29.8716 90.8682 29.9046C90.8348 29.9369 90.7946 29.9616 90.7503 29.9766C90.7061 29.9916 90.659 29.9967 90.6125 29.9915V29.9957ZM91.1733 23.7718H93.8374C94.7856 23.7718 95.2583 23.2836 95.2554 22.307V20.4331C95.2554 19.4566 94.7827 18.9683 93.8374 18.9683H91.1733C91.025 18.9683 90.9584 19.034 90.9584 19.1654V23.5747C90.952 23.7061 91.025 23.7718 91.1733 23.7718Z" fill="#3A3A3A"/>
<path d="M104.67 29.9956H102.687C102.586 30.0042 102.485 29.974 102.405 29.9114C102.325 29.8487 102.272 29.7582 102.258 29.6585L98.9426 17.6666C98.8588 17.4164 98.9598 17.2914 99.2434 17.2914H100.661C100.708 17.287 100.755 17.2935 100.799 17.3104C100.844 17.3254 100.886 17.3491 100.921 17.3804C100.956 17.4114 100.985 17.4489 101.005 17.4906C101.025 17.5326 101.037 17.5779 101.04 17.6242L103.618 27.9393H103.695L106.26 17.6242C106.271 17.5294 106.318 17.4423 106.391 17.3804C106.466 17.3169 106.562 17.2849 106.66 17.2914H108.052C108.334 17.2914 108.439 17.4164 108.372 17.6666L105.042 29.6585C105.035 29.7518 104.991 29.8386 104.92 29.9002C104.851 29.9614 104.763 29.9954 104.67 29.9956Z" fill="#3A3A3A"/>
<path d="M114.179 29.9955H112.918C112.68 29.9955 112.557 29.8811 112.557 29.6585V19.1653C112.563 19.1395 112.563 19.1126 112.557 19.0868C112.549 19.0604 112.534 19.0363 112.514 19.0169C112.495 18.9983 112.471 18.9845 112.445 18.9766C112.419 18.9702 112.391 18.9702 112.364 18.9766H109.839C109.601 18.9766 109.48 18.8664 109.48 18.6438V17.6326C109.48 17.4206 109.601 17.2998 109.839 17.2998H117.267C117.509 17.2998 117.632 17.41 117.632 17.6326V18.6438C117.632 18.8558 117.509 18.9766 117.267 18.9766H114.746C114.598 18.9766 114.532 19.0423 114.532 19.1737V29.667C114.538 29.7119 114.534 29.7576 114.519 29.8005C114.505 29.8443 114.48 29.8842 114.448 29.9171C114.414 29.9495 114.374 29.9741 114.33 29.9891C114.286 30.0042 114.239 30.0093 114.192 30.004L114.179 29.9955Z" fill="#3A3A3A"/>
<path d="M121.286 27.2485V29.6587C121.286 29.8707 121.181 29.9958 120.966 29.9958H119.604C119.558 30.0015 119.511 29.9965 119.467 29.981C119.423 29.9665 119.383 29.9418 119.351 29.9089C119.317 29.8767 119.292 29.8366 119.278 29.7923C119.263 29.7494 119.258 29.7036 119.265 29.6587V27.2485C119.265 27.0365 119.376 26.9305 119.604 26.9305H120.966C121.01 26.925 121.054 26.9294 121.096 26.9434C121.138 26.9574 121.176 26.9805 121.207 27.0111C121.237 27.0418 121.261 27.0787 121.276 27.1192C121.289 27.161 121.292 27.2051 121.286 27.2485Z" fill="#3A3A3A"/>
<path d="M136.124 29.9957H129.637C129.591 30.0021 129.544 29.9978 129.5 29.983C129.455 29.9682 129.415 29.9436 129.382 29.9109C129.348 29.8784 129.323 29.8384 129.309 29.7943C129.294 29.7507 129.289 29.7042 129.296 29.6587V17.6243C129.289 17.5794 129.294 17.5336 129.309 17.4908C129.324 17.4463 129.349 17.4063 129.384 17.3742C129.417 17.342 129.456 17.3174 129.5 17.3021C129.545 17.2891 129.591 17.2855 129.637 17.2915H130.896C130.943 17.2853 130.989 17.2889 131.034 17.3021C131.078 17.3173 131.119 17.3419 131.152 17.3742C131.185 17.407 131.21 17.4469 131.225 17.4908C131.24 17.5336 131.245 17.5794 131.238 17.6243V28.0772C131.238 28.2087 131.318 28.2744 131.479 28.2744H136.124C136.352 28.2744 136.463 28.3952 136.463 28.6305V29.6587C136.47 29.7035 136.465 29.7493 136.45 29.7922C136.436 29.8359 136.412 29.8759 136.379 29.9088C136.346 29.9412 136.306 29.9658 136.262 29.9808C136.217 29.9959 136.17 30.0009 136.124 29.9957Z" fill="#3A3A3A"/>
<path d="M142.232 29.9955H140.971C140.73 29.9955 140.61 29.8811 140.61 29.6585V19.1653C140.616 19.1395 140.616 19.1126 140.61 19.0868C140.602 19.0604 140.587 19.0363 140.567 19.0169C140.547 18.9983 140.524 18.9845 140.498 18.9766C140.471 18.9702 140.443 18.9702 140.416 18.9766H137.892C137.654 18.9766 137.533 18.8664 137.533 18.6438V17.6326C137.533 17.4206 137.654 17.2998 137.892 17.2998H145.319C145.562 17.2998 145.682 17.41 145.682 17.6326V18.6438C145.682 18.8558 145.562 18.9766 145.319 18.9766H142.793C142.644 18.9766 142.578 19.0423 142.578 19.1737V29.667C142.584 29.7119 142.58 29.7576 142.565 29.8005C142.551 29.8443 142.527 29.8842 142.494 29.9171C142.461 29.9495 142.42 29.9741 142.376 29.9891C142.332 30.0042 142.285 30.0093 142.238 30.004L142.232 29.9955Z" fill="#3A3A3A"/>
<path d="M147.799 29.6586V17.6243C147.792 17.5794 147.797 17.5336 147.812 17.4907C147.827 17.4477 147.852 17.4086 147.885 17.3762C147.917 17.3433 147.957 17.3186 148.001 17.3042C148.045 17.2894 148.092 17.285 148.138 17.2914H153.065C153.482 17.2673 153.899 17.3256 154.293 17.4628C154.686 17.6 155.048 17.8135 155.357 18.0906C155.912 18.622 156.188 19.376 156.187 20.3525V26.924C156.212 27.3352 156.151 27.7472 156.008 28.1344C155.866 28.5216 155.644 28.8759 155.357 29.1753C155.049 29.4551 154.688 29.6712 154.294 29.811C153.901 29.9508 153.483 30.0114 153.065 29.9893H148.143C148.097 29.9939 148.051 29.9889 148.007 29.9745C147.964 29.9595 147.924 29.9356 147.891 29.9045C147.859 29.8724 147.834 29.8341 147.818 29.7921C147.802 29.7496 147.795 29.704 147.799 29.6586ZM149.96 28.3146H152.783C153.743 28.3146 154.224 27.8278 154.225 26.854V20.433C154.225 19.4565 153.744 18.9682 152.783 18.9682H149.96C149.814 18.9682 149.745 19.034 149.745 19.1654V28.1048C149.739 28.1327 149.739 28.1616 149.745 28.1895C149.755 28.2169 149.771 28.2416 149.793 28.2616C149.814 28.2823 149.839 28.2976 149.868 28.3061C149.898 28.316 149.929 28.3189 149.96 28.3146Z" fill="#3A3A3A"/>
<path d="M160.854 27.2485V29.6587C160.854 29.8707 160.746 29.9958 160.534 29.9958H159.171C159.125 30.0015 159.078 29.9965 159.034 29.981C158.99 29.9665 158.95 29.9418 158.918 29.9089C158.884 29.8767 158.859 29.8366 158.845 29.7923C158.83 29.7494 158.826 29.7036 158.832 29.6587V27.2485C158.832 27.0365 158.944 26.9305 159.171 26.9305H160.534C160.577 26.925 160.622 26.9294 160.663 26.9434C160.705 26.9574 160.743 26.9805 160.774 27.0111C160.805 27.0418 160.828 27.0787 160.843 27.1192C160.856 27.161 160.86 27.2051 160.854 27.2485Z" fill="#3A3A3A"/>
<path d="M40.1685 13.5692H38.469C38.4121 13.5774 38.354 13.5723 38.2994 13.5544C38.2448 13.5366 38.1951 13.5063 38.1545 13.4662C38.1138 13.426 38.0831 13.3771 38.065 13.3232C38.0469 13.2693 38.0418 13.212 38.0501 13.1558V1.30801C38.0404 1.25111 38.0444 1.19276 38.0618 1.13769C38.0793 1.08263 38.1097 1.0324 38.1505 0.991088C38.1913 0.949778 38.2414 0.918553 38.2968 0.899952C38.3521 0.881352 38.4112 0.8759 38.469 0.884038H43.344C44.3838 0.884038 45.1902 1.16668 45.7632 1.73197C46.3361 2.29727 46.6226 3.08867 46.6226 4.1062V5.99921C46.6226 7.02522 46.3361 7.81733 45.7632 8.37556C45.1902 8.93378 44.3838 9.2129 43.344 9.2129H40.8281C40.6669 9.2129 40.5875 9.28497 40.5875 9.42488V13.1516C40.5965 13.2081 40.5919 13.2659 40.5742 13.3203C40.5564 13.3748 40.5259 13.4243 40.4851 13.465C40.4443 13.5056 40.3944 13.5362 40.3394 13.5543C40.2844 13.5724 40.2258 13.5775 40.1685 13.5692ZM40.813 7.02522H42.9314C43.3611 7.02522 43.6576 6.93618 43.8317 6.75812C44.0269 6.50823 44.119 6.19467 44.0895 5.8805V4.22491C44.0895 3.80094 44.0035 3.50204 43.8317 3.32822C43.6576 3.15015 43.3569 3.06111 42.9314 3.06111H40.813C40.784 3.0577 40.7545 3.06084 40.7269 3.07029C40.6993 3.07974 40.6742 3.09525 40.6535 3.11566C40.6328 3.13607 40.6171 3.16084 40.6075 3.18811C40.5979 3.21538 40.5947 3.24444 40.5982 3.2731V6.80051C40.5927 6.82954 40.5942 6.85943 40.6024 6.88781C40.6107 6.91619 40.6255 6.9423 40.6457 6.96409C40.6659 6.98587 40.6909 7.00272 40.7188 7.01333C40.7468 7.02394 40.7768 7.02801 40.8066 7.02522H40.813Z" fill="#3A3A3A"/>
<path d="M57.5708 0.892516H60.5271C60.5858 0.88248 60.6461 0.886511 60.7029 0.904267C60.7597 0.922023 60.8113 0.952983 60.8534 0.994542C60.8956 1.0361 60.9269 1.08704 60.9449 1.14307C60.9629 1.1991 60.967 1.25857 60.9568 1.31648V13.1643C60.9651 13.2214 60.9596 13.2796 60.9407 13.3342C60.9219 13.3889 60.8902 13.4383 60.8483 13.4786C60.8065 13.5189 60.7556 13.5488 60.6998 13.566C60.6439 13.5833 60.5848 13.5872 60.5271 13.5776H58.89C58.8323 13.5872 58.7732 13.5833 58.7174 13.566C58.6616 13.5488 58.6106 13.5189 58.5688 13.4786C58.5269 13.4383 58.4953 13.3889 58.4764 13.3342C58.4576 13.2796 58.452 13.2214 58.4603 13.1643V3.81154H58.3808L56.344 10.4148C56.322 10.5287 56.2595 10.6311 56.1677 10.7034C56.0758 10.7757 55.9608 10.8132 55.8434 10.8091H54.1655C54.048 10.8132 53.933 10.7757 53.8412 10.7034C53.7494 10.6311 53.6868 10.5287 53.6649 10.4148L51.5873 3.79034H51.5078V13.1558C51.5204 13.2697 51.4923 13.3845 51.4283 13.4801C51.3314 13.5528 51.2094 13.5847 51.0888 13.5692H49.4495C49.3926 13.5774 49.3345 13.5723 49.2799 13.5544C49.2252 13.5365 49.1756 13.5063 49.1349 13.4662C49.0942 13.426 49.0636 13.3771 49.0455 13.3232C49.0274 13.2693 49.0223 13.212 49.0306 13.1558V1.30801C49.0208 1.25111 49.0249 1.19276 49.0423 1.13769C49.0598 1.08263 49.0901 1.0324 49.1309 0.991088C49.1718 0.949778 49.2219 0.918553 49.2772 0.899952C49.3326 0.881352 49.3916 0.8759 49.4495 0.884038H52.4273C52.5132 0.881139 52.5975 0.907009 52.6666 0.957435C52.7356 1.00786 52.7853 1.07987 52.8076 1.16174L54.9239 8.11905H55.0442L57.1819 1.16174C57.1987 1.07585 57.2486 0.999749 57.3212 0.949513C57.3937 0.899277 57.4833 0.878839 57.5708 0.892516Z" fill="#3A3A3A"/>
<path d="M66.0706 13.5689H64.3733C64.3164 13.5771 64.2583 13.5721 64.2037 13.5542C64.1491 13.5363 64.0994 13.5061 64.0587 13.4659C64.0181 13.4258 63.9874 13.3768 63.9693 13.323C63.9512 13.2691 63.9461 13.2117 63.9544 13.1556V1.30777C63.9447 1.25088 63.9487 1.19253 63.9661 1.13746C63.9836 1.08239 64.014 1.03216 64.0548 0.990854C64.0956 0.949545 64.1457 0.91832 64.2011 0.899719C64.2564 0.881118 64.3154 0.875667 64.3733 0.883805H66.0706C66.1293 0.873768 66.1896 0.877797 66.2464 0.895553C66.3032 0.913309 66.3548 0.944271 66.3969 0.985831C66.439 1.02739 66.4704 1.07833 66.4884 1.13436C66.5064 1.19039 66.5105 1.24986 66.5003 1.30777V6.92747H66.539C66.7018 6.50001 66.9099 6.09072 67.1599 5.70644L70.1957 1.30989C70.2741 1.17568 70.3882 1.06521 70.5257 0.990473C70.6632 0.915731 70.8188 0.879575 70.9757 0.885923H72.9329C73.0812 0.885923 73.1693 0.93044 73.2036 1.01523C73.238 1.10003 73.2036 1.20814 73.0941 1.33957L69.2977 6.5247L73.5152 13.075C73.6097 13.2319 73.6269 13.3548 73.5667 13.4396C73.5197 13.4882 73.4617 13.525 73.3975 13.5471C73.3332 13.5693 73.2646 13.576 73.1972 13.5668H71.7384C71.2729 13.5668 70.9599 13.429 70.7995 13.1534L67.7422 8.32233L66.4831 9.7829V13.1534C66.4911 13.2091 66.486 13.2658 66.4683 13.3192C66.4505 13.3726 66.4205 13.4213 66.3807 13.4615C66.3408 13.5016 66.2921 13.5322 66.2383 13.5508C66.1846 13.5695 66.1272 13.5757 66.0706 13.5689Z" fill="#3A3A3A"/>
<path d="M80.2896 13.1556V1.30777C80.2795 1.24986 80.2836 1.19039 80.3015 1.13436C80.3195 1.07833 80.3509 1.02739 80.3931 0.985831C80.4352 0.944271 80.4868 0.913309 80.5436 0.895553C80.6004 0.877797 80.6606 0.873768 80.7193 0.883805H85.5148C86.5675 0.883805 87.3804 1.16009 87.9533 1.71266C88.5262 2.26523 88.8127 3.05381 88.8127 4.0784V4.88606C88.8127 6.00392 88.2863 6.72679 87.2336 7.05466C87.7228 7.10998 88.176 7.33544 88.5119 7.69061C88.8328 8.03827 88.9925 8.5329 88.991 9.1745V10.3574C88.991 11.3805 88.7046 12.1691 88.1316 12.7231C87.5587 13.2771 86.7523 13.5527 85.7124 13.5499H80.7086C80.6535 13.5574 80.5973 13.5526 80.5443 13.5358C80.4913 13.5189 80.4429 13.4905 80.4026 13.4526C80.3623 13.4146 80.3312 13.3682 80.3117 13.3168C80.2921 13.2654 80.2846 13.2103 80.2896 13.1556ZM83.044 6.03926H85.0829C85.4185 6.06684 85.7526 5.97179 86.0218 5.77216C86.1315 5.6549 86.2148 5.51609 86.2662 5.36485C86.3177 5.2136 86.3362 5.05333 86.3205 4.89454V4.12716C86.3205 3.71803 86.2238 3.42549 86.0326 3.24954C85.7673 3.04864 85.4353 2.95332 85.1023 2.98245H83.044C83.015 2.97904 82.9855 2.98217 82.9579 2.99162C82.9302 3.00107 82.9051 3.01658 82.8844 3.03699C82.8638 3.0574 82.848 3.08217 82.8385 3.10944C82.8289 3.13671 82.8257 3.16577 82.8292 3.19443V5.81667C82.8239 5.84613 82.8257 5.87641 82.8344 5.90506C82.8432 5.9337 82.8586 5.95991 82.8795 5.98158C82.9004 6.00324 82.9262 6.01975 82.9548 6.02977C82.9834 6.03979 83.0139 6.04304 83.044 6.03926ZM83.044 11.4788H85.2827C85.7124 11.4788 86.039 11.3919 86.2324 11.2138C86.3384 11.0946 86.4187 10.9552 86.4682 10.8043C86.5177 10.6534 86.5354 10.4941 86.5203 10.3362V9.19358C86.5203 8.78657 86.4214 8.49615 86.2216 8.32444C86.0218 8.15274 85.6952 8.07006 85.2419 8.07006H83.044C83.015 8.06666 82.9855 8.06979 82.9579 8.07924C82.9302 8.08869 82.9051 8.1042 82.8844 8.12461C82.8638 8.14502 82.848 8.16979 82.8385 8.19706C82.8289 8.22433 82.8257 8.25339 82.8292 8.28205V11.2498C82.8227 11.2797 82.8236 11.3108 82.8318 11.3402C82.84 11.3697 82.8553 11.3969 82.8764 11.4193C82.8974 11.4417 82.9237 11.4589 82.9528 11.4692C82.982 11.4796 83.0133 11.4828 83.044 11.4788Z" fill="#3A3A3A"/>
<path d="M98.3512 0.892282H100.029C100.324 0.892282 100.47 1.02371 100.47 1.28657V10.3553C100.47 11.3813 100.18 12.1734 99.5995 12.7316C99.0194 13.2898 98.2101 13.5689 97.1717 13.5689H94.9738C93.9232 13.5689 93.1089 13.2934 92.5374 12.7422C91.9659 12.191 91.678 11.394 91.678 10.3553V1.30777C91.6683 1.25088 91.6723 1.19253 91.6898 1.13746C91.7072 1.08239 91.7376 1.03216 91.7784 0.990854C91.8192 0.949545 91.8693 0.91832 91.9247 0.899719C91.9801 0.881118 92.0391 0.875667 92.097 0.883805H93.7964C93.8551 0.873768 93.9154 0.877797 93.9722 0.895553C94.029 0.913309 94.0806 0.944271 94.1227 0.985831C94.1648 1.02739 94.1962 1.07833 94.2142 1.13436C94.2322 1.19039 94.2363 1.24986 94.2261 1.30777V10.2387C94.2261 10.6626 94.3164 10.9615 94.4968 11.1354C94.746 11.335 95.0646 11.4302 95.3842 11.4003H96.7635C97.1932 11.4003 97.494 11.3113 97.6723 11.1354C97.8506 10.9594 97.943 10.6584 97.943 10.2387V1.30777C97.9352 1.25251 97.9402 1.1962 97.9577 1.14315C97.9753 1.09009 98.0049 1.04169 98.0442 1.00162C98.0836 0.961546 98.1317 0.93087 98.1849 0.911923C98.2381 0.892976 98.295 0.886259 98.3512 0.892282Z" fill="#3A3A3A"/>
<path d="M106.005 1.30777V13.1556C106.013 13.2117 106.008 13.2691 105.99 13.323C105.972 13.3768 105.941 13.4258 105.901 13.4659C105.86 13.5061 105.81 13.5363 105.756 13.5542C105.701 13.5721 105.643 13.5771 105.586 13.5689H103.884C103.827 13.579 103.767 13.5754 103.711 13.5583C103.655 13.5413 103.604 13.5113 103.562 13.4709C103.52 13.4306 103.488 13.3809 103.47 13.3261C103.451 13.2712 103.446 13.2128 103.455 13.1556V1.30777C103.445 1.24986 103.449 1.19039 103.467 1.13436C103.485 1.07833 103.516 1.02739 103.558 0.985831C103.6 0.944271 103.652 0.913309 103.709 0.895553C103.765 0.877797 103.826 0.873768 103.884 0.883805H105.584C105.642 0.875293 105.701 0.880465 105.757 0.898901C105.812 0.917336 105.863 0.94851 105.904 0.989868C105.945 1.03123 105.976 1.08159 105.993 1.13685C106.011 1.1921 106.015 1.25068 106.005 1.30777Z" fill="#3A3A3A"/>
<path d="M116.094 13.5689H109.522C109.464 13.5785 109.405 13.5745 109.349 13.5573C109.294 13.5401 109.243 13.5101 109.201 13.4699C109.159 13.4296 109.127 13.3801 109.109 13.3255C109.09 13.2709 109.084 13.2127 109.092 13.1556V1.30777C109.082 1.24986 109.086 1.19039 109.104 1.13436C109.122 1.07833 109.154 1.02739 109.196 0.985831C109.238 0.944271 109.29 0.913309 109.346 0.895553C109.403 0.877797 109.463 0.873768 109.522 0.883805H111.219C111.278 0.873768 111.338 0.877797 111.395 0.895553C111.452 0.913309 111.504 0.944271 111.546 0.985831C111.588 1.02739 111.619 1.07833 111.637 1.13436C111.655 1.19039 111.659 1.24986 111.649 1.30777V11.1672C111.649 11.3085 111.729 11.3791 111.888 11.3791H116.103C116.369 11.3791 116.503 11.5233 116.503 11.8137V13.1534C116.497 13.4304 116.361 13.5689 116.094 13.5689Z" fill="#3A3A3A"/>
<path d="M118.472 13.1558V1.30801C118.462 1.25111 118.466 1.19276 118.484 1.13769C118.501 1.08263 118.532 1.0324 118.572 0.991088C118.613 0.949778 118.663 0.918553 118.719 0.899952C118.774 0.881352 118.833 0.8759 118.891 0.884038H123.832C124.872 0.884038 125.682 1.16668 126.26 1.73197C126.839 2.29727 127.129 3.08867 127.13 4.1062V10.3555C127.13 11.3815 126.84 12.1736 126.26 12.7318C125.68 13.2901 124.871 13.5692 123.832 13.5692H118.891C118.834 13.5774 118.776 13.5723 118.721 13.5544C118.667 13.5366 118.617 13.5063 118.576 13.4662C118.536 13.426 118.505 13.3771 118.487 13.3232C118.469 13.2693 118.464 13.212 118.472 13.1558ZM121.228 11.4006H123.407C123.837 11.4006 124.138 11.3115 124.316 11.1356C124.494 10.9596 124.587 10.6586 124.587 10.2389V4.22491C124.587 3.80094 124.496 3.50204 124.316 3.32822C124.135 3.15439 123.832 3.06535 123.407 3.06111H121.228C121.199 3.0577 121.17 3.06084 121.142 3.07029C121.115 3.07974 121.09 3.09525 121.069 3.11566C121.048 3.13607 121.033 3.16084 121.023 3.18811C121.013 3.21538 121.01 3.24444 121.014 3.2731V11.178C121.008 11.2074 121.01 11.2377 121.019 11.2664C121.028 11.295 121.043 11.3212 121.064 11.3429C121.085 11.3646 121.111 11.3811 121.139 11.3911C121.168 11.4011 121.198 11.4044 121.228 11.4006Z" fill="#3A3A3A"/>
<path d="M138.689 13.5689H137.011C136.725 13.5689 136.582 13.4311 136.582 13.1556V3.27921C136.585 3.25064 136.581 3.22175 136.572 3.19467C136.562 3.16759 136.546 3.14299 136.526 3.12268C136.505 3.10236 136.48 3.08684 136.453 3.07724C136.425 3.06765 136.396 3.06423 136.367 3.06723H134.089C134.032 3.07729 133.972 3.07365 133.916 3.05661C133.86 3.03958 133.809 3.00963 133.767 2.96924C133.725 2.92885 133.694 2.87918 133.675 2.82435C133.656 2.76951 133.651 2.71107 133.66 2.65386V1.31412C133.65 1.25621 133.654 1.19673 133.672 1.14071C133.69 1.08468 133.721 1.03374 133.763 0.992179C133.805 0.950619 133.857 0.919656 133.914 0.9019C133.97 0.884144 134.031 0.880116 134.089 0.890152H141.641C141.7 0.880116 141.76 0.884144 141.817 0.9019C141.874 0.919656 141.926 0.950619 141.968 0.992179C142.01 1.03374 142.041 1.08468 142.059 1.14071C142.077 1.19673 142.081 1.25621 142.071 1.31412V2.65386C142.079 2.71098 142.074 2.76921 142.055 2.82382C142.036 2.87844 142.004 2.92789 141.963 2.96817C141.921 3.00845 141.87 3.03841 141.814 3.05562C141.758 3.07283 141.699 3.07681 141.641 3.06723H139.364C139.205 3.06723 139.126 3.1393 139.126 3.27921V13.1556C139.134 13.2133 139.128 13.2722 139.109 13.3274C139.09 13.3826 139.058 13.4325 139.015 13.4729C138.973 13.5133 138.921 13.5431 138.864 13.5598C138.807 13.5765 138.748 13.5796 138.689 13.5689Z" fill="#3A3A3A"/>
<path d="M150.921 13.5689H144.387C144.33 13.579 144.27 13.5754 144.214 13.5583C144.158 13.5413 144.107 13.5113 144.065 13.4709C144.023 13.4306 143.991 13.3809 143.973 13.3261C143.954 13.2712 143.949 13.2128 143.958 13.1556V1.30777C143.947 1.24986 143.952 1.19039 143.97 1.13436C143.988 1.07833 144.019 1.02739 144.061 0.985831C144.103 0.944271 144.155 0.913309 144.212 0.895553C144.268 0.877797 144.329 0.873768 144.387 0.883805H150.921C151.187 0.883805 151.32 1.02159 151.32 1.30777V2.64751C151.32 2.93016 151.187 3.06795 150.921 3.06088H146.744C146.585 3.06088 146.506 3.13295 146.506 3.27286V5.83575C146.506 5.97708 146.585 6.04774 146.744 6.04774H150.162C150.219 6.03955 150.277 6.0446 150.332 6.06248C150.387 6.08036 150.436 6.11058 150.477 6.15072C150.518 6.19087 150.548 6.23984 150.566 6.29372C150.585 6.34761 150.59 6.40492 150.581 6.46111V7.80297C150.59 7.85915 150.585 7.91647 150.566 7.97035C150.548 8.02424 150.518 8.07321 150.477 8.11335C150.436 8.1535 150.387 8.18371 150.332 8.20159C150.277 8.21947 150.219 8.22452 150.162 8.21634H146.744C146.585 8.21634 146.506 8.287 146.506 8.42832V11.1693C146.506 11.3106 146.585 11.3813 146.744 11.3813H150.921C151.187 11.3813 151.32 11.519 151.32 11.8052V13.145C151.32 13.4276 151.187 13.5689 150.921 13.5689Z" fill="#3A3A3A"/>
<path d="M159.212 13.5692H157.035C155.982 13.5692 155.17 13.2937 154.597 12.7425C154.024 12.1913 153.737 11.3957 153.737 10.3556V4.10626C153.737 3.06966 154.023 2.2726 154.597 1.72144C155.17 1.17028 155.982 0.892578 157.035 0.892578H159.212C160.252 0.892578 161.061 1.17522 161.639 1.74051C162.218 2.30581 162.505 3.09721 162.499 4.11474V5.04111C162.507 5.09916 162.502 5.15831 162.483 5.21401C162.465 5.26972 162.434 5.3205 162.392 5.36246C162.351 5.40442 162.3 5.43644 162.244 5.45607C162.188 5.47569 162.128 5.4824 162.069 5.47568H160.389C160.11 5.47568 159.959 5.33153 159.959 5.04111V4.23345C159.959 3.80948 159.869 3.51058 159.689 3.33676C159.51 3.15869 159.205 3.06966 158.78 3.06966H157.422C157.101 3.0394 156.782 3.1354 156.533 3.33676C156.352 3.51482 156.262 3.81372 156.262 4.23345V10.2474C156.262 10.6714 156.352 10.9703 156.533 11.1441C156.782 11.3439 157.102 11.439 157.422 11.4091H158.78C159.21 11.4091 159.51 11.3201 159.689 11.1441C159.867 10.9682 159.959 10.6672 159.959 10.2474V9.42918C159.959 9.14654 160.103 9.00521 160.389 9.00521H162.067C162.125 8.99881 162.184 9.00537 162.239 9.02442C162.294 9.04346 162.344 9.07449 162.385 9.11522C162.427 9.15594 162.458 9.2053 162.477 9.25965C162.497 9.31401 162.503 9.37195 162.497 9.42918V10.3556C162.497 11.3816 162.21 12.1737 161.637 12.7319C161.064 13.2901 160.256 13.5692 159.212 13.5692Z" fill="#3A3A3A"/>
<path d="M167.205 13.5689H165.507C165.45 13.579 165.39 13.5754 165.334 13.5583C165.278 13.5413 165.227 13.5113 165.185 13.4709C165.143 13.4306 165.112 13.3809 165.093 13.3261C165.074 13.2712 165.069 13.2128 165.078 13.1556V1.30777C165.068 1.24986 165.072 1.19039 165.09 1.13436C165.108 1.07833 165.139 1.02739 165.181 0.985831C165.223 0.944271 165.275 0.913309 165.332 0.895553C165.388 0.877797 165.449 0.873768 165.507 0.883805H167.205C167.263 0.873768 167.324 0.877797 167.381 0.895553C167.437 0.913309 167.489 0.944271 167.531 0.985831C167.573 1.02739 167.605 1.07833 167.623 1.13436C167.641 1.19039 167.645 1.24986 167.634 1.30777V5.93962C167.634 6.08095 167.714 6.15161 167.873 6.15161H171.25C171.279 6.15502 171.309 6.15188 171.336 6.14243C171.364 6.13298 171.389 6.11747 171.41 6.09707C171.431 6.07666 171.446 6.05189 171.456 6.02461C171.465 5.99734 171.469 5.96828 171.465 5.93962V1.30777C171.455 1.24986 171.459 1.19039 171.477 1.13436C171.495 1.07833 171.526 1.02739 171.569 0.985831C171.611 0.944271 171.662 0.913309 171.719 0.895553C171.776 0.877797 171.836 0.873768 171.895 0.883805H173.592C173.65 0.875667 173.709 0.881118 173.764 0.899719C173.82 0.91832 173.87 0.949545 173.911 0.990854C173.952 1.03216 173.982 1.08239 173.999 1.13746C174.017 1.19253 174.021 1.25088 174.011 1.30777V13.1556C174.019 13.2117 174.014 13.2691 173.996 13.323C173.978 13.3768 173.947 13.4258 173.907 13.4659C173.866 13.5061 173.816 13.5363 173.762 13.5542C173.707 13.5721 173.649 13.5771 173.592 13.5689H171.895C171.837 13.5785 171.778 13.5745 171.722 13.5573C171.666 13.5401 171.616 13.5102 171.574 13.4699C171.532 13.4296 171.5 13.3801 171.481 13.3255C171.462 13.2709 171.457 13.2127 171.465 13.1556V8.54279C171.468 8.51422 171.465 8.48533 171.455 8.45825C171.445 8.43117 171.43 8.40657 171.409 8.38625C171.388 8.36594 171.363 8.35042 171.336 8.34082C171.309 8.33123 171.279 8.32781 171.25 8.33081H167.873C167.714 8.33081 167.634 8.405 167.634 8.54279V13.1556C167.643 13.2127 167.637 13.2709 167.618 13.3255C167.599 13.3801 167.568 13.4296 167.526 13.4699C167.484 13.5102 167.433 13.5401 167.377 13.5573C167.322 13.5745 167.262 13.5785 167.205 13.5689Z" fill="#3A3A3A"/>
</g>
<defs>
<clipPath id="clip0_244_2988">
<rect width="174" height="30" fill="white"/>
</clipPath>
</defs>
</svg>
